<?xml version="1.0" standalone="no"?>
<!DOCTYPE svg PUBLIC "-//W3C//DTD SVG 20010904//EN"
 "http://www.w3.org/TR/2001/REC-SVG-20010904/DTD/svg10.dtd">
<svg version="1.0" xmlns="http://www.w3.org/2000/svg"
 width="1536.000000pt" height="768.000000pt" viewBox="0 0 1536.000000 768.000000"
 preserveAspectRatio="xMidYMid meet">
<metadata>
Created by potrace 1.15, written by Peter Selinger 2001-2017
</metadata>
<g transform="translate(0.000000,768.000000) scale(0.100000,-0.100000)"
fill="#677077" stroke="none">
<path d="M0 3840 l0 -3840 7680 0 7680 0 0 3840 0 3840 -7680 0 -7680 0 0
-3840z m5185 1158 c-1 -1052 -3 -1916 -4 -1920 0 -5 -21 -8 -46 -8 l-45 0 0
1920 0 1920 48 0 48 0 -1 -1912z m575 1862 l0 -50 -190 0 -190 0 0 -1820 0
-1820 190 0 190 0 0 -50 0 -50 -240 0 -240 0 0 1920 0 1920 240 0 240 0 0 -50z
m4320 -1870 l0 -1920 -240 0 -240 0 0 50 0 50 190 0 190 0 0 1820 0 1820 -190
0 -190 0 0 50 0 50 240 0 240 0 0 -1920z m190 -1 l0 -1920 -47 3 -48 3 -1
1918 0 1917 48 0 48 0 0 -1921z m-1602 1159 c7 -7 12 -40 12 -78 0 -76 -9 -90
-61 -90 l-36 0 -7 -78 c-23 -275 -174 -512 -471 -736 l-88 -66 -89 0 c-99 0
-128 10 -128 44 0 17 17 34 65 67 l65 44 -65 3 -65 3 0 74 c0 54 -4 78 -16 89
-14 15 2 16 173 16 l189 0 40 43 c119 125 175 228 198 366 9 52 16 103 16 113
0 17 -30 18 -721 18 l-722 0 7 -62 c22 -194 103 -348 263 -498 82 -76 244
-196 350 -258 96 -56 87 -62 -89 -62 l-151 0 -71 53 c-158 119 -291 257 -358
369 -74 125 -128 299 -128 414 l0 44 -43 0 c-24 0 -48 5 -55 12 -7 7 -12 40
-12 78 0 38 5 71 12 78 17 17 1969 17 1986 0z m-1010 -719 c-15 -8 -18 -24
-18 -89 0 -67 -3 -80 -16 -80 -18 0 -97 52 -203 132 l-64 48 159 0 c113 -1
154 -4 142 -11z m112 -189 l0 -170 170 0 170 0 0 -50 0 -50 -170 0 -170 0 0
-170 0 -170 -50 0 -50 0 0 170 0 170 -170 0 -170 0 0 50 0 50 170 0 170 0 0
170 0 170 50 0 50 0 0 -170z m-130 -338 c0 -37 -2 -40 -92 -97 -234 -150 -407
-307 -487 -443 -49 -82 -86 -191 -97 -280 l-7 -62 723 0 722 0 -6 48 c-4 26
-10 62 -13 80 l-5 32 -639 0 c-433 0 -639 3 -639 10 0 14 47 108 72 143 l19
27 555 0 555 0 -18 31 c-26 47 -168 194 -243 254 -36 28 -104 77 -152 109
l-88 58 0 64 0 64 69 0 69 0 123 -87 c140 -100 295 -248 359 -342 88 -130 141
-276 156 -423 l7 -68 41 0 c23 0 47 -5 54 -12 7 -7 12 -40 12 -78 0 -38 -5
-71 -12 -78 -17 -17 -1969 -17 -1986 0 -7 7 -12 40 -12 78 0 77 9 90 62 90 38
0 38 0 38 39 0 55 26 184 50 248 73 196 220 367 467 547 l118 86 113 0 112 0
0 -38z m-1770 -2647 l0 -95 -265 0 -265 0 0 -530 0 -530 -95 0 -95 0 0 530 0
530 -265 0 -265 0 0 88 c0 49 3 92 7 95 3 4 285 7 625 7 l618 0 0 -95z m2547
80 c53 -16 111 -64 140 -118 16 -29 18 -73 18 -492 0 -456 0 -460 -22 -502
-27 -50 -86 -100 -133 -113 -21 -6 -251 -10 -562 -10 l-528 0 0 625 0 625 518
0 c430 0 527 -3 569 -15z m-1504 -244 c51 -20 96 -62 122 -114 l25 -51 0 -315
c0 -192 -4 -331 -11 -354 -13 -49 -73 -115 -124 -138 -36 -17 -73 -19 -376
-19 l-335 0 -52 26 c-35 18 -63 41 -85 72 l-32 47 0 356 0 355 28 42 c37 57
94 93 159 101 90 11 650 4 681 -8z m2790 0 c51 -20 96 -62 122 -114 l25 -51 0
-315 c0 -192 -4 -331 -11 -354 -13 -49 -73 -115 -124 -138 -36 -17 -73 -19
-376 -19 l-335 0 -52 26 c-35 18 -63 41 -85 72 l-32 47 0 356 0 355 28 42 c37
57 94 93 159 101 90 11 650 4 681 -8z m785 -258 l3 -123 124 0 125 0 0 -95 0
-95 -125 0 -124 0 -3 -127 -3 -128 -92 -3 -93 -3 0 131 0 130 -125 0 -125 0 0
95 0 95 125 0 125 0 0 125 0 126 93 -3 92 -3 3 -122z"/>
<path d="M7531 2146 c-8 -9 -10 -131 -9 -432 l3 -419 419 -3 c301 -1 423 1
432 9 11 9 14 87 14 420 0 357 -2 410 -16 423 -13 14 -66 16 -423 16 -333 0
-411 -3 -420 -14z"/>
<path d="M6244 1906 c-12 -9 -14 -57 -12 -311 l3 -300 309 -3 c241 -2 311 1
318 10 4 7 8 144 8 305 0 223 -3 294 -12 300 -20 12 -596 11 -614 -1z"/>
<path d="M9034 1906 c-12 -9 -14 -57 -12 -311 l3 -300 309 -3 c241 -2 311 1
318 10 4 7 8 144 8 305 0 223 -3 294 -12 300 -20 12 -596 11 -614 -1z"/>
</g>
</svg>
