<?xml version="1.0" standalone="no"?>
<!DOCTYPE svg PUBLIC "-//W3C//DTD SVG 20010904//EN"
 "http://www.w3.org/TR/2001/REC-SVG-20010904/DTD/svg10.dtd">
<svg version="1.0" xmlns="http://www.w3.org/2000/svg"
 width="655.000000pt" height="756.000000pt" viewBox="0 0 655.000000 756.000000"
 preserveAspectRatio="xMidYMid meet">
<metadata>
Created by potrace 1.16, written by Peter Selinger 2001-2019
</metadata>
<g transform="translate(0.000000,756.000000) scale(0.100000,-0.100000)"
fill="#677077" stroke="none">
<path d="M0 3780 l0 -3780 3275 0 3275 0 0 3780 0 3780 -3275 0 -3275 0 0
-3780z m6355 3711 c66 -13 79 -21 103 -65 14 -26 17 -61 17 -201 0 -153 -2
-175 -22 -217 -29 -63 -62 -78 -195 -91 l-108 -11 0 -35 c-1 -113 -23 -340
-45 -445 -55 -276 -180 -610 -323 -871 -236 -430 -643 -850 -1299 -1343 l-162
-122 -153 0 c-184 0 -370 15 -418 32 -72 26 -100 61 -103 128 -2 65 8 75 277
267 61 43 111 83 113 89 5 16 -78 24 -249 24 l-147 0 -3 236 -3 236 -50 43
c-27 24 -46 47 -42 52 17 16 189 21 714 22 l532 1 119 138 c251 291 354 436
452 637 83 171 139 353 169 553 12 80 41 327 41 355 0 16 -116 17 -2307 17
l-2306 0 6 -127 c13 -286 110 -641 243 -893 178 -336 545 -753 900 -1022 268
-203 546 -394 830 -571 178 -112 215 -147 181 -172 -27 -19 -121 -25 -548 -35
l-393 -8 -210 160 c-292 223 -448 358 -682 592 -286 286 -363 382 -534 671
-105 176 -157 286 -213 450 -93 273 -149 538 -169 795 l-11 158 -123 4 c-105
3 -127 6 -151 24 -52 39 -58 63 -61 264 -4 200 4 252 41 272 39 21 677 25
3507 23 2079 -1 2739 -5 2785 -14z m-3217 -2280 c40 -5 76 -12 80 -16 4 -4 -7
-19 -24 -33 -17 -15 -34 -36 -37 -47 -3 -11 -9 -109 -12 -218 -6 -207 -11
-239 -44 -256 -31 -17 -52 -13 -128 23 -86 41 -181 104 -363 241 -74 55 -175
129 -223 164 -92 66 -127 105 -110 122 5 5 29 13 54 18 57 11 712 13 807 2z
m387 -123 c4 -4 13 -239 20 -523 8 -285 17 -520 20 -524 4 -3 147 -9 318 -14
172 -4 409 -11 527 -15 l215 -7 0 -160 0 -160 -531 -3 -531 -2 -6 -197 c-4
-108 -7 -351 -7 -540 l0 -345 -157 7 c-87 4 -159 8 -160 9 -1 1 -7 231 -13
511 -6 281 -13 520 -16 533 l-4 22 -530 0 -530 0 0 164 0 164 278 7 c637 16
771 21 779 29 4 4 11 220 15 479 3 259 9 490 13 514 5 36 10 44 33 49 15 3 32
7 37 10 17 6 223 -1 230 -8z m-529 -1504 l132 -6 6 -30 c12 -61 7 -173 -10
-196 -8 -12 -70 -54 -137 -93 -716 -421 -1444 -1057 -1697 -1484 -199 -338
-330 -745 -330 -1027 l0 -88 2305 0 c1268 0 2305 1 2305 3 0 30 -44 353 -56
410 l-17 77 -806 0 c-996 0 -3249 18 -3275 26 -14 5 -17 12 -12 38 15 76 237
485 275 505 54 29 226 33 1846 41 908 4 1660 11 1673 15 12 4 22 11 22 15 0 4
-18 34 -39 66 -132 197 -524 598 -776 795 -289 225 -579 425 -703 483 l-62 30
5 125 c3 69 8 163 11 207 l6 81 60 7 c97 10 319 7 362 -5 43 -12 288 -174 463
-306 407 -306 838 -715 1042 -987 304 -405 517 -986 557 -1514 8 -106 -4 -98
137 -106 104 -6 163 -30 191 -77 25 -42 37 -197 26 -325 -12 -139 -16 -151
-53 -164 -67 -24 -553 -29 -2912 -29 -2463 0 -3405 7 -3444 28 -11 6 -25 28
-30 49 -17 65 -24 253 -12 336 21 146 57 176 212 176 l96 0 7 122 c22 378 153
832 337 1163 296 532 722 957 1514 1509 l210 146 220 -5 c121 -3 279 -8 351
-11z"/>
</g>
</svg>
