 <svg version="1.0" xmlns="http://www.w3.org/2000/svg" width="700.000000pt" height="530.000000pt" viewBox="0 0 700.000000 530.000000" preserveAspectRatio="xMidYMid meet">
<metadata>
Created by potrace 1.12, written by Peter Selinger 2001-2015
</metadata>
<g transform="translate(0.000000,530.000000) scale(0.100000,-0.100000)" fill="#677077" stroke="none">
<path d="M0 2650 l0 -2650 3500 0 3500 0 0 2650 0 2650 -3500 0 -3500 0 0
-2650z m462 -2 c2 -1261 2 -2300 0 -2309 -3 -12 -16 -15 -58 -14 l-54 1 -3
2307 -2 2307 57 0 58 0 2 -2292z m696 2235 l-3 -58 -230 -2 -230 -1 0 -2189 0
-2188 230 -1 230 -2 0 -57 0 -57 -290 1 c-192 0 -290 4 -289 11 1 5 2 1043 3
2305 l1 2295 290 0 291 0 -3 -57z m5187 -2251 l0 -2303 -285 0 -285 0 0 56 0
56 230 2 c177 2 230 5 229 15 -1 6 -2 992 -2 2190 l-2 2177 -227 0 -228 0 -3
44 c-6 76 -25 72 290 69 l283 -3 0 -2303z m235 1 l0 -2308 -57 0 -57 0 -1
2300 c-1 1265 1 2303 3 2308 2 4 28 7 58 7 l54 0 0 -2307z m-1928 1390 c14
-13 18 -31 18 -93 0 -91 -11 -107 -79 -112 l-43 -3 -3 -70 c-3 -91 -44 -250
-89 -349 -45 -97 -126 -220 -203 -305 -60 -67 -216 -203 -325 -283 l-65 -48
-102 0 c-116 0 -151 13 -151 59 0 22 13 35 75 76 41 28 75 53 75 58 0 4 -34 7
-75 7 l-75 0 0 90 c0 79 -2 91 -20 102 -11 7 -20 16 -20 21 0 4 104 7 231 6
266 -1 231 -15 346 129 112 139 160 257 179 446 l7 66 -867 0 -866 0 0 -27 c2
-125 48 -287 112 -392 74 -122 204 -265 314 -346 21 -16 71 -52 109 -80 64
-47 183 -126 253 -166 15 -9 27 -22 27 -30 0 -11 -32 -14 -178 -17 l-177 -2
-94 70 c-52 38 -129 102 -172 142 -88 81 -224 228 -224 241 0 5 -14 29 -30 54
-82 122 -146 312 -157 471 l-6 82 -53 0 c-42 0 -55 4 -64 19 -14 28 -13 174 2
189 9 9 287 12 1192 12 1083 0 1181 -1 1198 -17z m-1198 -852 c3 -5 -3 -11
-14 -14 -18 -5 -20 -14 -20 -96 0 -75 -3 -93 -16 -98 -22 -8 -69 16 -154 79
-39 29 -90 67 -112 83 -73 53 -68 55 131 55 99 0 182 -4 185 -9z m116 -238 l5
-198 200 -5 200 -5 0 -60 0 -60 -200 0 -200 0 -3 -203 -2 -203 -58 3 -57 3 -5
200 -5 200 -200 0 -200 1 0 59 0 60 200 5 200 5 3 190 c1 105 4 195 6 201 3 7
25 10 58 8 l53 -2 5 -199z m-152 -411 c3 -38 0 -44 -28 -60 -153 -86 -427
-289 -516 -384 -109 -114 -181 -225 -227 -349 -24 -63 -47 -179 -47 -233 l0
-26 866 0 866 0 -8 67 c-4 37 -10 78 -14 92 l-6 26 -760 2 c-417 2 -765 5
-772 8 -8 3 1 30 33 91 25 48 53 96 62 106 16 17 48 18 677 18 505 0 660 3
658 12 -10 37 -153 198 -251 281 -88 75 -250 191 -309 221 l-33 17 3 77 3 77
78 3 c75 3 79 2 135 -35 242 -158 465 -371 565 -538 84 -142 140 -314 151
-470 l3 -50 49 -3 c73 -5 84 -20 84 -117 0 -50 -5 -86 -12 -93 -9 -9 -289 -12
-1198 -12 -909 0 -1189 3 -1198 12 -7 7 -12 43 -12 92 0 97 12 116 75 116 l42
0 6 83 c8 102 52 258 101 356 106 215 286 401 585 605 l83 57 132 -3 131 -3 3
-43z"></path>
</g>
</svg>