 <svg version="1.0" xmlns="http://www.w3.org/2000/svg" width="700.000000pt" height="530.000000pt" viewBox="0 0 700.000000 530.000000" preserveAspectRatio="xMidYMid meet">
<metadata>
Created by potrace 1.12, written by Peter Selinger 2001-2015
</metadata>
<g transform="translate(0.000000,530.000000) scale(0.100000,-0.100000)" fill="#677077" stroke="none">
<path d="M0 2650 l0 -2650 3500 0 3500 0 0 2650 0 2650 -3500 0 -3500 0 0
-2650z m4652 1373 c14 -13 18 -31 18 -93 0 -91 -11 -107 -79 -112 l-45 -3 -2
-70 c-4 -151 -84 -375 -187 -523 -91 -131 -241 -275 -429 -414 l-65 -48 -102
0 c-116 0 -151 13 -151 59 0 22 13 35 75 76 41 28 75 53 75 58 0 4 -34 7 -75
7 l-75 0 0 90 c0 79 -2 91 -20 102 -11 7 -20 16 -20 20 0 5 105 8 234 8 l235
0 54 63 c159 180 212 297 233 509 l7 68 -867 0 -866 0 0 -27 c2 -125 48 -287
112 -392 74 -122 204 -265 314 -346 21 -16 71 -52 109 -80 64 -47 183 -126
253 -166 15 -9 27 -22 27 -30 0 -11 -32 -14 -179 -17 l-178 -2 -94 71 c-170
127 -344 302 -406 405 -18 30 -43 72 -55 92 -54 88 -111 285 -120 410 l-6 82
-53 0 c-67 0 -74 11 -74 119 0 66 3 82 18 90 11 7 412 10 1191 11 1079 0 1176
-1 1193 -17z m-1202 -852 c0 -5 -7 -11 -15 -15 -12 -4 -15 -25 -15 -96 0 -74
-3 -92 -16 -97 -22 -8 -69 16 -154 79 -39 29 -90 67 -112 83 -73 53 -68 55
131 55 100 0 181 -4 181 -9z m120 -238 l5 -198 200 -5 200 -5 0 -60 0 -60
-200 0 -200 0 -3 -203 -2 -203 -58 3 -57 3 -5 200 -5 200 -200 0 -200 1 0 59
0 60 200 5 200 5 3 190 c1 105 4 195 6 200 2 6 28 10 57 9 l54 -2 5 -199z
m-152 -411 c3 -38 0 -44 -28 -60 -283 -159 -565 -404 -671 -583 -70 -117 -119
-276 -119 -383 l0 -26 866 0 866 0 -8 67 c-4 37 -10 78 -14 92 l-6 26 -760 2
c-417 2 -765 5 -772 8 -8 3 1 30 33 91 25 48 53 96 62 106 16 17 48 18 677 18
505 0 660 3 658 12 -10 37 -153 198 -251 281 -88 75 -250 191 -309 221 l-33
17 3 77 3 77 78 3 c75 3 79 2 135 -35 189 -123 412 -322 510 -454 111 -149
193 -368 206 -554 l3 -50 49 -3 c72 -5 84 -20 84 -109 0 -41 -5 -83 -10 -94
-10 -19 -34 -19 -1198 -19 -911 0 -1191 3 -1200 12 -7 7 -12 43 -12 92 0 97
12 116 75 116 l42 0 6 83 c8 101 52 258 100 354 107 217 285 401 586 607 l83
57 132 -3 131 -3 3 -43z"></path>
</g>
</svg>